<?xml version="1.0" encoding="utf-8"?>
<!-- Generator: Adobe Illustrator 22.1.0, SVG Export Plug-In . SVG Version: 6.00 Build 0)  -->
<svg version="1.1" id="Layer_1" xmlns="http://www.w3.org/2000/svg" xmlns:xlink="http://www.w3.org/1999/xlink" x="0px" y="0px"
	 viewBox="0 0 241.4 65.5" style="enable-background:new 0 0 241.4 65.5;" xml:space="preserve">
<style type="text/css">
	.st0{fill:#4F4F5B;}
</style>
<path class="st0" d="M142.2,36.4c-2.1,3.5-3.3,6-10.3,5.8h-22.3c-5.5,0.2-8.2-2.3-10.3-5.8L85.8,39c1.5,7.5,8.3,12.5,16.3,12.5
	c0,0,13.6,0.3,18.1,0.3c4.6,0,18.5-0.3,18.5-0.3h0.7c8,0,14.8-5,16.3-12.5L142.2,36.4z"/>
<g>
	<g>
		<path class="st0" d="M110.9,0L94.8,6.8c-10.2,5.1-10.2,10.2-11,16.1l13.6-2.5c0.6-3.1,1.7-4.7,5.9-6.8c1.7-0.8,11-4.2,11-4.2"/>
	</g>
	<g>
		<path class="st0" d="M127.1,10.2c0,0,9.3,3.4,11,4.2c4.3,2.1,5.4,3.6,5.9,6.8l13.6,2.5c-0.8-5.9-0.8-11-11-16.1l-16.1-6.8"/>
	</g>
</g>
<g>
	<g>
		<g>
			<path class="st0" d="M49.5,50.1l-22.4,4.3c-6.9,1.3-13.5-3.4-14.8-10l0,0c-1.3-6.9,3.4-13.5,10-14.8l22.4-4.3
				c4.1-0.8,8,0.5,11,3.1l12.4-2.4C65,18.8,57.3,14.3,49.6,15.8l-36.2,6.9C4.6,24.3-1.4,33.1,0.3,42.2L2,51.3
				c1.7,9.1,10.5,14.8,19.3,13.1l36-6.9c7.9-1.5,13.2-8.4,13.5-16.2l-13.1,2.5C56.1,47.1,53.1,49.5,49.5,50.1z"/>
		</g>
		<path class="st0" d="M100.8,32.7l-47.7,9.1c-2.6,0.5-5.2-1.2-5.7-3.9l0,0c-0.5-2.6,1.2-5.2,3.9-5.7L99,23.2
			c2.6-0.5,5.2,1.2,5.7,3.9l0,0C105.1,29.7,103.4,32.2,100.8,32.7z"/>
	</g>
	<g>
		<g>
			<path class="st0" d="M183.7,44.7l-13.1-2.5c0.3,7.7,5.6,14.7,13.5,16.2l36,6.9c8.8,1.7,17.6-4.1,19.3-13.1l1.7-9.1
				c1.7-9.1-4.3-17.9-13.1-19.5l-36.2-6.9c-7.6-1.5-15.4,3-18.5,10.3l12.4,2.4c3-2.6,6.9-3.9,11-3.1l22.4,4.3
				c6.7,1.3,11.4,7.8,10,14.8l0,0c-1.3,6.7-7.8,11.4-14.8,10L191.9,51C188.4,50.3,185.3,48,183.7,44.7z"/>
		</g>
		<path class="st0" d="M136.8,27.9L136.8,27.9c0.5-2.6,3.1-4.4,5.7-3.9l47.7,9.1c2.6,0.5,4.4,3.1,3.9,5.7l0,0
			c-0.5,2.6-3.1,4.4-5.7,3.9l-47.7-9.1C138,33.1,136.3,30.5,136.8,27.9z"/>
	</g>
</g>
</svg>
