<?xml version="1.0" encoding="utf-8"?>
<!-- Generator: Adobe Illustrator 22.1.0, SVG Export Plug-In . SVG Version: 6.00 Build 0)  -->
<svg version="1.1" id="Layer_1" xmlns="http://www.w3.org/2000/svg" xmlns:xlink="http://www.w3.org/1999/xlink" x="0px" y="0px"
	 viewBox="0 0 58.3 42.2" style="enable-background:new 0 0 58.3 42.2;" xml:space="preserve">
<style type="text/css">
	.st0{fill:#4F4F5B;}
</style>
<g>
	<path class="st0" d="M21.1,31.7L13,36.5c-2.5,1.5-5.7,0.7-7.1-1.7h0c-1.4-2.4-0.6-5.6,1.9-7.1l8.1-4.8c1.4-0.8,3-0.9,4.4-0.4
		l4.6-2.7c-2.1-2.3-5.7-3-8.5-1.3l-13,7.7C0.1,28-1,32.3,0.9,35.5l2,3.3c1.9,3.2,6.1,4.3,9.4,2.4l13-7.7c2.8-1.7,4-5.1,3-8.1
		l-4.7,2.8C23.3,29.6,22.4,30.9,21.1,31.7z"/>
</g>
<g>
	<path class="st0" d="M57.3,6.7l-2-3.3C53.5,0.1,49.3-1,46,0.9L33,8.6c-2.8,1.7-4,5.1-3,8.1l5-3c0.3-1.4,1.1-2.7,2.5-3.5l8.1-4.8
		c2.5-1.5,5.7-0.7,7.1,1.7c1.4,2.4,0.5,5.5-1.9,7L42.7,19c-1.3,0.8-2.9,0.9-4.3,0.5l-5,3c2.1,2.3,5.7,3,8.5,1.3l13-7.7
		C58.2,14.1,59.3,9.9,57.3,6.7z"/>
</g>
<path class="st0" d="M39.8,14.8c-0.6-1-1.9-1.4-2.9-0.8L35,15.2l-4.5,2.6l-4.9,2.9l-4.1,2.4l-1.1,0.6c-0.2,0.1-0.4,0.3-0.6,0.5
	c0,0,0,0,0,0c0,0,0,0.1-0.1,0.1c-0.4,0.7-0.5,1.5-0.1,2.3c0.6,1,1.9,1.4,2.9,0.8l1-0.6l4.1-2.4l1.2-0.7l3.6-2.2l4.5-2.6l1.9-1.1
	c0.3-0.2,0.6-0.4,0.7-0.7C40.1,16.4,40.2,15.5,39.8,14.8z"/>
</svg>
