<?xml version="1.0" encoding="utf-8"?>
<!-- Generator: Adobe Illustrator 22.1.0, SVG Export Plug-In . SVG Version: 6.00 Build 0)  -->
<svg version="1.1" xmlns="http://www.w3.org/2000/svg" xmlns:xlink="http://www.w3.org/1999/xlink" x="0px" y="0px"
	 viewBox="0 0 349 249" style="enable-background:new 0 0 349 249;" xml:space="preserve">
<style type="text/css">
	.st0{display:none;}
	.st1{display:inline;fill:#FFFFFF;}
	.st2{fill:#818191;}
	.st3{fill:#FFFFFF;}
	.st4{fill:#4F4F5B;}
</style>
<g id="Layer_2" class="st0">
	<rect x="-322" y="-384.1" class="st1" width="1000" height="1000"/>
</g>
<g id="Layer_1">
	<g>
		<g>
			<g>
				<path class="st2" d="M71.8,218.8c-0.3,0-0.5-0.1-0.8-0.2c-1-0.4-1.4-1.6-1-2.6c10.2-23.5-17.9-108.8-18.1-109.7
					c-0.3-1,0.2-2.1,1.2-2.5c1-0.3,2.1,0.2,2.5,1.2c1.2,3.6,28.8,87.6,18,112.4C73.3,218.4,72.6,218.8,71.8,218.8z"/>
			</g>
		</g>
		<g>
			<g>
				<path class="st2" d="M157,218.9c-0.8,0-1.5-0.5-1.8-1.2c-10.1-25.1,17.7-110.4,18.9-114c0.3-1,1.4-1.6,2.5-1.2
					c1,0.3,1.6,1.4,1.2,2.5c-0.3,0.9-28.5,87.5-19,111.3c0.4,1-0.1,2.1-1.1,2.5C157.5,218.8,157.3,218.9,157,218.9z"/>
			</g>
		</g>
		<g>
			<g>
				<path class="st2" d="M158.7,164.5C158.7,164.5,158.7,164.5,158.7,164.5c-13.6,0-25.7-8.6-36-25.5c-8-13.2-12.7-27.9-14.5-33.5
					c-0.3-0.9-0.6-1.8-0.7-2.1c-0.4-0.7-0.4-1.5,0.1-2.2c0.7-0.9,1.9-1,2.7-0.4c0.6,0.4,0.7,0.7,1.5,3.5
					c8.2,25.6,22.9,56.2,46.8,56.3c1.1,0,1.9,0.9,1.9,2C160.7,163.6,159.8,164.5,158.7,164.5z M108,104C108,104,108,104,108,104
					C108,104,108,104,108,104z M108,104C108,104,108,104,108,104C108,104,108,104,108,104z"/>
			</g>
		</g>
		<g>
			<g>
				<path class="st2" d="M154.3,192.1c-0.2,0-0.4,0-0.6-0.1c-16.4-5.4-39.4-18.6-55.6-50.9c-9.6-19.2-12.2-35.9-12.3-36.6
					c-0.2-1.1,0.6-2.1,1.6-2.2c1.1-0.2,2.1,0.6,2.2,1.6c0,0.2,2.6,16.9,12,35.6c8.6,17.1,24.8,39.5,53.3,48.9c1,0.3,1.6,1.4,1.2,2.5
					C155.9,191.6,155.1,192.1,154.3,192.1z"/>
			</g>
		</g>
		<g>
			<g>
				<path class="st2" d="M149.8,217.7c-0.2,0-0.5,0-0.7-0.1c-15.7-5.9-29.8-15.6-41.9-28.7c-9.7-10.5-18.2-23.2-25.3-37.7
					c-12-24.7-15.7-46.7-15.7-46.9c-0.2-1.1,0.5-2.1,1.6-2.2c1.1-0.2,2.1,0.5,2.2,1.6c0,0.2,3.7,21.7,15.5,45.9
					c6.9,14.2,15.2,26.6,24.6,36.7c11.7,12.7,25.3,22,40.4,27.7c1,0.4,1.5,1.5,1.1,2.5C151.4,217.3,150.6,217.7,149.8,217.7z"/>
			</g>
		</g>
		<g>
			<g>
				<path class="st2" d="M121.3,218.8c-0.3,0-0.6-0.1-0.8-0.2c-22-10.5-35.2-26.2-42.4-37.5c-7.8-12.2-10.4-21.9-10.5-22.3
					c-0.3-1,0.4-2.1,1.4-2.4c1-0.3,2.1,0.4,2.4,1.4l0,0c0,0.1,2.6,9.6,10.1,21.3c6.9,10.8,19.6,25.8,40.7,35.9
					c1,0.5,1.4,1.6,0.9,2.6C122.7,218.4,122,218.8,121.3,218.8z"/>
			</g>
		</g>
		<g>
			<g>
				<path class="st2" d="M74.3,187c-0.6,0-1.2-0.3-1.5-0.8c-0.7-0.9-0.5-2.1,0.4-2.7c16.8-12.8,28.6-33.5,34.1-44.7
					c8.4-17,12.1-31.2,11.3-36c-0.2-1.1,0.5-2.1,1.6-2.2c1.1-0.2,2.1,0.5,2.2,1.6c1.1,6.5-3.7,22.3-11.7,38.4
					c-5.7,11.5-17.9,32.7-35.3,46C75.1,186.9,74.7,187,74.3,187z"/>
			</g>
		</g>
		<g>
			<g>
				<path class="st2" d="M81,218.9c-0.4,0-0.9-0.1-1.3-0.5c-0.8-0.7-0.9-1.9-0.2-2.7c11.6-13.8,28.3-35,41.3-57.2
					c13.2-22.5,20-41.3,20.2-55.8c0-1.1,0.9-1.9,1.9-1.9c0,0,0,0,0,0c1.1,0,1.9,0.9,1.9,2c-0.2,15.2-7.2,34.6-20.8,57.7
					c-13.2,22.4-30,43.8-41.7,57.7C82.1,218.7,81.6,218.9,81,218.9z"/>
			</g>
		</g>
		<g>
			<g>
				<path class="st2" d="M99.7,218.8c-0.6,0-1.2-0.3-1.6-0.8c-0.6-0.9-0.4-2.1,0.5-2.7c21.6-15.3,37-43.2,46.1-63.8
					c10.5-23.9,15.2-44.1,14.9-47.1c-0.1-1.1,0.6-2,1.7-2.2c1.1-0.1,2,0.6,2.2,1.7c0.6,4.5-5.2,26.4-15.2,49.2
					c-9.3,21.1-25.1,49.7-47.4,65.5C100.5,218.7,100.1,218.8,99.7,218.8z"/>
			</g>
		</g>
		<g>
			<g>
				<path class="st2" d="M130.3,217.5c-0.6,0-1.1-0.2-1.5-0.7c-0.7-0.8-0.6-2.1,0.3-2.7c20-16.6,28.7-51.6,28.8-52
					c0.3-1,1.3-1.7,2.4-1.4c1,0.3,1.7,1.3,1.4,2.4c-0.1,0.4-2.3,9.2-7,20.4c-6.4,15-14.2,26.4-23,33.7
					C131.2,217.4,130.8,217.5,130.3,217.5z"/>
			</g>
		</g>
		<g>
			<g>
				<path class="st2" d="M163.1,145.1c-0.1,0-0.2,0-0.2,0c-23.6-2.9-31.5-30.3-34.1-39.3c-0.2-0.8-0.5-1.7-0.6-2
					c-0.5-0.7-0.4-1.7,0.2-2.4c0.7-0.8,2-0.9,2.8-0.1c0.6,0.5,0.7,1.1,1.4,3.5c2.4,8.4,9.8,34,30.9,36.5c1.1,0.1,1.8,1.1,1.7,2.2
					C164.9,144.3,164,145.1,163.1,145.1z M128.4,104.1C128.4,104.1,128.4,104.1,128.4,104.1C128.4,104.1,128.4,104.1,128.4,104.1z
					 M128.4,104.1C128.4,104.1,128.4,104.1,128.4,104.1C128.4,104.1,128.4,104.1,128.4,104.1z"/>
			</g>
		</g>
		<g>
			<g>
				<path class="st2" d="M69.5,160.3c-0.5,0-0.9-0.2-1.3-0.5c-0.8-0.7-0.9-1.9-0.2-2.7c0.3-0.3,29.7-34.2,30-52.7
					c0-1.1,0.9-1.9,1.9-1.9c0,0,0,0,0,0c1.1,0,1.9,0.9,1.9,2c-0.3,20-29.7,53.8-30.9,55.3C70.6,160.1,70,160.3,69.5,160.3z"/>
			</g>
		</g>
		<g>
			<g>
				<path class="st2" d="M168.4,128.7c-0.2,0-0.5,0-0.7-0.1c-16.1-6.7-19.2-24.6-19.3-25.3c-0.2-1.1,0.5-2.1,1.6-2.2
					c1.1-0.2,2.1,0.5,2.2,1.6c0,0.2,2.9,16.5,17,22.4c1,0.4,1.5,1.6,1.1,2.5C169.9,128.3,169.2,128.7,168.4,128.7z"/>
			</g>
		</g>
		<g>
			<g>
				<path class="st2" d="M91.3,217c-0.2,0-0.5,0-0.7-0.1c-16.2-6.7-18.3-20.7-18.4-21.2c-0.1-1.1,0.6-2.1,1.7-2.2
					c1.1-0.1,2,0.6,2.2,1.7c0.1,0.5,2,12.4,16,18.2c1,0.4,1.5,1.6,1.1,2.5C92.8,216.6,92.1,217,91.3,217z"/>
			</g>
		</g>
		<g>
			<g>
				<path class="st2" d="M61.6,131.5c-0.7,0-1.4-0.4-1.8-1.1c-0.5-1-0.1-2.1,0.9-2.6c0.2-0.1,15.7-7.9,16.7-23.8
					c0.1-1.1,1-1.9,2.1-1.8c1.1,0.1,1.9,1,1.8,2.1c-1.1,18.2-18.1,26.7-18.9,27.1C62.2,131.4,61.9,131.5,61.6,131.5z"/>
			</g>
		</g>
		<g>
			<g>
				<rect x="44.8" y="94.3" class="st3" width="134.4" height="12.3"/>
			</g>
		</g>
		<g>
			<g>
				<path class="st4" d="M181.2,99.1H46.5c-2.3,0-4.2-1.9-4.2-4.2s1.9-4.2,4.2-4.2h134.7c2.3,0,4.2,1.9,4.2,4.2
					S183.5,99.1,181.2,99.1z"/>
			</g>
		</g>
		<g>
			<path class="st2" d="M55.1,63.2c0-11.5,8.7-18,19-18c5.6,0,9.6,2.2,12.4,5l-2.9,3.7c-2.8-2.4-5.8-3.9-9.4-3.9
				c-7.9,0-13.3,5.3-13.3,13.2c0,7.8,5.4,13,13.2,13c4.2,0,7.7-1.9,10.5-4.3l2.6,3.8C83.6,79,78.9,81,73.8,81
				C63.1,81,55.1,74.5,55.1,63.2z"/>
			<path class="st2" d="M103.6,76.4h-0.2l-0.6,3.8l-4.6,0l0-50.1l5.8,0l0,13.6l-0.3,6.6l0.2,0c3.1-3.2,7.4-5.2,11.5-5.2
				c9.2,0,14.2,6.8,14.2,17.4c0,11.7-7.3,18.5-15.4,18.5C110.9,81,106.8,79.2,103.6,76.4z M123.6,62.6c0-7.5-2.8-12.5-9.6-12.5
				c-3,0-6.5,1.6-10,5.1l0,17c3.2,2.9,6.8,3.9,9.2,3.9C119.2,76.1,123.7,71,123.6,62.6z"/>
			<path class="st2" d="M145.8,76.3l-0.2,0l-0.6,3.8l-4.6,0l0-50.1l5.8,0l0,13.6l-0.3,6.6h0.2c3.1-3.2,7.4-5.2,11.5-5.2
				c9.2,0,14.2,6.8,14.2,17.4c0,11.7-7.3,18.5-15.4,18.5C153,81,149,79.2,145.8,76.3z M165.8,62.5c0-7.5-2.8-12.5-9.6-12.5
				c-3,0-6.5,1.6-10,5.1l0,17c3.2,2.9,6.8,3.9,9.2,3.9C161.3,76,165.8,71,165.8,62.5z"/>
		</g>
		<g>
			<g id="XMLID_4_">
				<g>
					<polygon class="st2" points="251.7,51.1 229.4,51.1 221.7,58 221.7,120.2 228.2,126.1 228.2,145.4 212.6,145.4 199.4,133.4 
						199.4,43.1 212.6,31 264.9,31 278.3,43.2 278.3,78.3 259.3,78.3 259.3,58 					"/>
					<polygon class="st4" points="259.4,120.2 252.3,126.6 251.6,127.2 229.4,127.2 228.2,126.1 228.2,115.4 241.3,103.4 
						259.2,103.4 					"/>
					<polygon class="st2" points="252.3,126.6 259.4,120.2 259.2,103.4 277.7,103.4 277.7,121.7 258.9,121.7 					"/>
					<polygon class="st2" points="259.1,97 277.7,97 277.7,103.4 259.2,103.4 					"/>
					<polygon class="st4" points="277.7,103.4 293.5,103.4 306.6,115.6 306.6,137.3 288.7,137.3 288.7,127.8 282.4,121.7 
						277.7,121.7 					"/>
					<polygon class="st2" points="251.1,145.4 251.1,127.5 251.6,127.2 251.7,127.2 252.3,126.6 258.9,121.7 277.7,121.7 
						277.7,133.3 264.9,145.4 					"/>
					<polygon class="st4" points="228.2,205.3 228.2,145.4 251.1,145.4 251.1,192.5 256.7,198.7 282.4,198.7 288.7,192.6 
						288.7,174.5 278,174.5 278,154.6 306.6,154.6 306.6,178.4 306.6,191.6 306.6,204.9 293.4,217 238.3,217 					"/>
					<polygon class="st4" points="251.1,127.5 251.1,145.4 228.2,145.4 228.2,126.1 229.4,127.2 251.6,127.2 					"/>
				</g>
			</g>
		</g>
	</g>
</g>
</svg>
