<?xml version="1.0" encoding="utf-8"?>
<!-- Generator: Adobe Illustrator 22.1.0, SVG Export Plug-In . SVG Version: 6.00 Build 0)  -->
<svg version="1.1" xmlns="http://www.w3.org/2000/svg" xmlns:xlink="http://www.w3.org/1999/xlink" x="0px" y="0px"
	 viewBox="0 0 299 247" style="enable-background:new 0 0 299 247;" xml:space="preserve">
<style type="text/css">
	.st0{display:none;}
	.st1{display:inline;fill:#FFFFFF;}
	.st2{fill:#4F4F5B;}
	.st3{fill:#818191;}
	.st4{fill:#9292A0;}
	.st5{fill:#FFFFFF;}
</style>
<g id="Layer_2" class="st0">
	<rect x="-347" y="-382.1" class="st1" width="1000" height="1000"/>
</g>
<g id="Layer_1">
	<g>
		<g>
			<path class="st2" d="M43,77.3c0-10.5,8-16.5,17.4-16.5c5.1,0,8.8,2.1,11.4,4.6l-2.6,3.4c-2.6-2.2-5.3-3.5-8.6-3.5
				c-7.2,0-12.2,4.8-12.2,12.1c0,7.1,4.9,11.9,12.1,11.9c3.9,0,7.1-1.7,9.7-3.9l2.4,3.5c-3.5,3.1-7.8,4.9-12.4,4.9
				C50.4,93.7,43,87.7,43,77.3z"/>
			<path class="st2" d="M87.4,89.4h-0.2l-0.5,3.5l-4.3,0l0-45.9l5.3,0l0,12.5l-0.3,6.1l0.2,0c2.8-2.9,6.8-4.8,10.5-4.8
				c8.4,0,13,6.2,13,15.9c0,10.7-6.7,16.9-14.1,16.9C94.1,93.6,90.3,92,87.4,89.4z M105.8,76.7c0-6.9-2.6-11.5-8.8-11.5
				c-2.8,0-6,1.4-9.1,4.6l0,15.6c2.9,2.6,6.2,3.6,8.4,3.6C101.7,89.1,105.8,84.5,105.8,76.7z"/>
			<path class="st2" d="M126.1,89.3h-0.2l-0.5,3.5l-4.3,0l0-45.9l5.3,0l0,12.5l-0.3,6.1h0.2c2.8-2.9,6.8-4.8,10.5-4.8
				c8.4,0,13,6.2,13,15.9c0,10.7-6.7,16.9-14.1,16.9C132.7,93.6,129,92,126.1,89.3z M144.4,76.7c0-6.9-2.6-11.5-8.8-11.5
				c-2.8,0-6,1.4-9.1,4.6l0,15.6c2.9,2.6,6.2,3.6,8.4,3.6C140.3,89.1,144.4,84.4,144.4,76.7z"/>
		</g>
		<g>
			<g id="XMLID_4_">
				<g>
					<polygon class="st2" points="264.5,188.2 264.5,199.9 252.8,210.5 204.5,210.5 195.8,200.3 195.7,147.8 215.8,147.8 215.8,189 
						220.7,194.5 243.2,194.5 248.7,189.1 248.7,173.2 239.4,173.2 239.4,155.8 264.4,155.8 264.4,176.6 					"/>
					<polygon class="st2" points="264.5,121.6 264.5,140.7 248.7,140.7 248.7,132.3 243.2,127 239.1,127 239.1,111 253,111 					"/>
					<polygon class="st3" points="239.6,58.2 239.6,88.9 223,88.9 223,71.2 216.3,65.1 196.8,65.1 190.1,71.2 190.1,125.7 
						195.7,130.8 195.7,147.8 182,147.8 170.5,137.2 170.5,58.1 182,47.5 227.9,47.5 					"/>
					<polygon class="st3" points="239.1,127 239.1,137.1 227.9,147.8 215.8,147.8 215.8,132.1 216.2,131.8 216.3,131.8 216.8,131.3 
						222.6,127 					"/>
					<polygon class="st3" points="239.1,111 239.1,127 222.6,127 216.8,131.3 223,125.7 222.9,111 					"/>
					<polygon class="st3" points="239.1,105.3 239.1,111 222.9,111 222.8,105.3 					"/>
					<polygon class="st2" points="222.9,111 223,125.7 216.8,131.3 216.2,131.8 196.8,131.8 195.7,130.8 195.7,121.5 207.2,111 
											"/>
					<polygon class="st2" points="216.2,131.8 215.8,132.1 215.8,147.8 195.7,147.8 195.7,130.8 196.8,131.8 					"/>
				</g>
				<g>
				</g>
			</g>
		</g>
		<g>
			<g>
				<path class="st4" d="M65.9,212.6c-0.1,0-0.2,0-0.2,0c-0.9-0.1-1.5-0.9-1.3-1.8c1.5-10-1-29.3-7.1-55.7
					c-4.7-20.1-9.8-37.3-9.9-37.5c-0.3-0.8,0.2-1.7,1.1-2c0.8-0.3,1.7,0.2,2,1.1c0.8,2.8,20.8,69.5,17.1,94.5
					C67.4,212.1,66.7,212.6,65.9,212.6z"/>
			</g>
			<g>
				<path class="st4" d="M132.2,211.7c-0.8,0-1.5-0.6-1.6-1.4c-4.1-44.8,15.1-94.5,15.3-95c0.3-0.8,1.2-1.2,2.1-0.9
					c0.8,0.3,1.2,1.2,0.9,2.1c-0.2,0.5-19.1,49.5-15.1,93.6c0.1,0.9-0.6,1.6-1.4,1.7C132.3,211.7,132.3,211.7,132.2,211.7z"/>
			</g>
			<g>
				<path class="st4" d="M132.2,179c-0.2,0-0.5-0.1-0.7-0.2c-10.4-5.2-19.6-15.9-27.5-31.8c-6.2-12.6-9.7-24.8-11.2-30
					c-0.3-0.9-0.5-1.8-0.6-2.1c-0.3-0.6-0.3-1.3,0.2-1.8c0.6-0.7,1.6-0.8,2.2-0.2c0.5,0.4,0.5,0.5,1.3,3.2c1.5,5.1,4.9,17.1,11,29.5
					c7.5,15.3,16.3,25.5,26,30.4c0.8,0.4,1.1,1.3,0.7,2.1C133.4,178.7,132.8,179,132.2,179z M92.6,115.4
					C92.6,115.4,92.6,115.4,92.6,115.4C92.6,115.4,92.6,115.4,92.6,115.4z M92.6,115.4C92.6,115.4,92.6,115.4,92.6,115.4
					C92.6,115.4,92.6,115.4,92.6,115.4z"/>
			</g>
			<g>
				<path class="st4" d="M132.2,211.7c-0.4,0-0.8-0.1-1.1-0.4c-18-16.8-32.2-35.7-42.2-55.9C80.8,139,77.5,126.1,76,119.9
					c-0.3-1.1-0.6-2.3-0.8-2.9c0,0,0,0,0,0c-0.7-0.6-0.7-1.6-0.2-2.2c0.4-0.5,1.1-0.7,1.7-0.6c1.2,0.3,1.4,1.1,2.4,5
					c3.2,12.6,12.8,50.9,54.3,89.8c0.6,0.6,0.7,1.6,0.1,2.2C133.1,211.6,132.7,211.7,132.2,211.7z"/>
			</g>
			<g>
				<path class="st4" d="M112.3,210.8c-0.4,0-0.8-0.1-1.1-0.4c-23.9-21.5-37.6-46.1-44.8-62.8c-7.9-18.2-10.1-31.1-10.2-31.7
					c-0.1-0.9,0.4-1.7,1.3-1.8c0.9-0.1,1.7,0.4,1.8,1.3c0,0.1,2.2,13.2,10,31c7.1,16.5,20.6,40.5,44,61.6c0.7,0.6,0.7,1.6,0.1,2.2
					C113.1,210.6,112.7,210.8,112.3,210.8z"/>
			</g>
			<g>
				<path class="st4" d="M89.1,211.7c-0.5,0-0.9-0.2-1.2-0.6c-20.9-24.9-27.5-46-27.8-46.9c-0.3-0.8,0.2-1.7,1-2
					c0.8-0.3,1.7,0.2,2,1c0.1,0.2,6.8,21.4,27.2,45.8c0.6,0.7,0.5,1.7-0.2,2.2C89.8,211.6,89.5,211.7,89.1,211.7z"/>
			</g>
			<g>
				<path class="st4" d="M65,189.5c-0.5,0-0.9-0.2-1.2-0.6c-0.6-0.7-0.5-1.7,0.2-2.2c23.5-19.8,38.5-63.3,37.1-72.1
					c-0.1-0.9,0.5-1.7,1.3-1.8c0.9-0.1,1.7,0.5,1.8,1.3c1.6,10.4-14.2,54.8-38.2,75C65.7,189.3,65.4,189.5,65,189.5z"/>
			</g>
			<g>
				<path class="st4" d="M65.9,212.6c-0.3,0-0.7-0.1-1-0.3c-0.7-0.5-0.8-1.5-0.3-2.2c2.4-3.2,4.9-6.4,7.6-9.8
					C94.2,172,119,140,119.3,114.5c0-0.9,0.7-1.6,1.6-1.6c0,0,0,0,0,0c0.9,0,1.6,0.7,1.6,1.6c-0.3,26.6-25.5,59-47.8,87.7
					c-2.6,3.4-5.1,6.6-7.5,9.8C66.9,212.4,66.4,212.6,65.9,212.6z"/>
			</g>
			<g>
				<path class="st4" d="M89.1,211.7c-0.4,0-0.8-0.1-1.1-0.4c-0.6-0.6-0.7-1.6-0.1-2.2c16.1-17.4,28.3-42.5,34.1-56
					c8.6-19.8,12.5-34.8,12.2-37.2c-0.1-0.9,0.5-1.7,1.4-1.8c0.9-0.1,1.7,0.5,1.8,1.4c0.4,3.8-4.5,20.3-12.5,38.9
					c-13,30.1-26.1,47.6-34.7,56.9C89.9,211.6,89.5,211.7,89.1,211.7z"/>
			</g>
			<g>
				<path class="st4" d="M112.3,210.8c-0.3,0-0.7-0.1-1-0.3c-0.7-0.5-0.8-1.5-0.3-2.2c14.6-18.6,19.7-31.3,19.8-31.4
					c0.3-0.8,1.2-1.2,2.1-0.9c0.8,0.3,1.2,1.2,0.9,2.1c-0.2,0.5-5.3,13.2-20.2,32.2C113.2,210.6,112.7,210.8,112.3,210.8z"/>
			</g>
			<g>
				<path class="st4" d="M134.9,154.4c-0.2,0-0.4,0-0.6-0.1c-16.5-6.9-22.8-29.6-24.8-37c-0.2-0.8-0.5-1.7-0.6-2
					c-0.4-0.6-0.3-1.4,0.2-2c0.6-0.6,1.6-0.6,2.2,0c0.4,0.4,0.6,0.9,1.2,3.1c2,7.1,7.9,28.6,23,34.9c0.8,0.3,1.2,1.3,0.9,2.1
					C136.1,154,135.5,154.4,134.9,154.4z M109.1,115.5C109.1,115.5,109.1,115.5,109.1,115.5C109.1,115.5,109.1,115.5,109.1,115.5z"
					/>
			</g>
			<g>
				<path class="st4" d="M62,163.5c-0.5,0-0.9-0.2-1.2-0.6c-0.5-0.7-0.4-1.7,0.3-2.2c0.3-0.2,26.3-21.1,23.5-44.6
					c-0.1-0.9,0.5-1.7,1.4-1.8c0.9-0.1,1.7,0.5,1.8,1.4c1.3,10.5-2.6,22.1-11.3,33.5c-6.4,8.5-13.2,13.8-13.4,14
					C62.7,163.4,62.4,163.5,62,163.5z"/>
			</g>
			<g>
				<path class="st4" d="M140.9,135.5c-0.2,0-0.4,0-0.7-0.1c-13-5.9-15-20-15.1-20.6c-0.1-0.9,0.5-1.7,1.4-1.8
					c0.9-0.1,1.7,0.5,1.8,1.4c0,0.2,1.9,12.9,13.3,18.1c0.8,0.4,1.2,1.3,0.8,2.1C142.1,135.2,141.5,135.5,140.9,135.5z"/>
			</g>
			<g>
				<path class="st4" d="M57.8,145.4c-0.4,0-0.8-0.2-1.1-0.5c-0.6-0.6-0.6-1.6,0-2.2l0,0c0.1-0.1,10.9-11.1,11.4-27.1
					c0-0.9,0.8-1.6,1.6-1.5c0.9,0,1.6,0.8,1.5,1.6c-0.5,17.2-11.8,28.8-12.3,29.2C58.6,145.3,58.2,145.4,57.8,145.4z"/>
			</g>
			<g>
				<rect x="41.6" y="107.5" class="st5" width="109.7" height="10.1"/>
			</g>
			<g>
				<path class="st2" d="M152.9,112.6H43c-2.5,0-4.5-2-4.5-4.5s2-4.5,4.5-4.5h109.9c2.5,0,4.5,2,4.5,4.5S155.4,112.6,152.9,112.6z"
					/>
			</g>
		</g>
	</g>
</g>
</svg>
