<?xml version="1.0" encoding="utf-8"?>
<!-- Generator: Adobe Illustrator 22.1.0, SVG Export Plug-In . SVG Version: 6.00 Build 0)  -->
<svg version="1.1" id="Layer_1" xmlns="http://www.w3.org/2000/svg" xmlns:xlink="http://www.w3.org/1999/xlink" x="0px" y="0px"
	 viewBox="0 0 226.2 165.7" style="enable-background:new 0 0 226.2 165.7;" xml:space="preserve">
<style type="text/css">
	.st0{fill:#4F4F5B;}
	.st1{fill:#818191;}
	.st2{fill:#9292A0;}
</style>
<g>
	<g>
		<path class="st0" d="M4.5,30.3c0-10.5,8-16.5,17.4-16.5c5.1,0,8.8,2.1,11.4,4.6l-2.6,3.4c-2.6-2.2-5.3-3.5-8.6-3.5
			C15,18.3,10,23.1,10,30.3c0,7.1,4.9,11.9,12.1,11.9c3.9,0,7.1-1.7,9.7-3.9l2.4,3.5c-3.5,3.1-7.8,4.9-12.4,4.9
			C11.9,46.7,4.6,40.7,4.5,30.3z"/>
		<path class="st0" d="M49,42.4h-0.2l-0.5,3.5l-4.3,0L44,0l5.3,0l0,12.5l-0.3,6.1l0.2,0c2.8-2.9,6.8-4.8,10.5-4.8
			c8.4,0,13,6.2,13,15.9c0,10.7-6.7,16.9-14.1,16.9C55.6,46.7,51.9,45,49,42.4z M67.3,29.8c0-6.9-2.6-11.5-8.8-11.5
			c-2.8,0-6,1.4-9.1,4.6l0,15.6c2.9,2.6,6.2,3.6,8.4,3.6C63.2,42.1,67.3,37.5,67.3,29.8z"/>
		<path class="st0" d="M87.6,42.4h-0.2l-0.5,3.5l-4.3,0l0-45.9L88,0l0,12.5l-0.3,6.1h0.2c2.8-2.9,6.8-4.8,10.5-4.8
			c8.4,0,13,6.2,13,15.9c0,10.7-6.7,16.9-14.1,16.9C94.3,46.6,90.5,45,87.6,42.4z M106,29.7c0-6.9-2.6-11.5-8.8-11.5
			c-2.8,0-6,1.4-9.1,4.6l0,15.6c2.9,2.6,6.2,3.6,8.4,3.6C101.9,42.1,106,37.5,106,29.7z"/>
	</g>
	<g>
		<g id="XMLID_4_">
			<g>
				<polygon class="st0" points="226,141.3 226,152.9 214.4,163.5 166.1,163.5 157.3,153.3 157.3,100.8 177.3,100.8 177.3,142 
					182.2,147.5 204.7,147.5 210.3,142.2 210.3,126.3 200.9,126.3 200.9,108.9 226,108.9 226,129.7 				"/>
				<polygon class="st0" points="226,74.7 226,93.7 210.3,93.7 210.3,85.4 204.7,80 200.7,80 200.7,64 214.5,64 				"/>
				<polygon class="st1" points="201.2,11.3 201.2,42 184.6,42 184.6,24.2 177.9,18.1 158.3,18.1 151.6,24.2 151.6,78.7 157.3,83.9 
					157.3,100.8 143.6,100.8 132,90.3 132,11.2 143.6,0.6 189.4,0.6 				"/>
				<polygon class="st1" points="200.7,80 200.7,90.1 189.4,100.8 177.3,100.8 177.3,85.1 177.8,84.8 177.9,84.8 178.4,84.3 
					184.2,80 				"/>
				<polygon class="st1" points="200.7,64 200.7,80 184.2,80 178.4,84.3 184.6,78.7 184.4,64 				"/>
				<polygon class="st1" points="200.7,58.3 200.7,64 184.4,64 184.4,58.4 				"/>
				<polygon class="st0" points="184.4,64 184.6,78.7 178.4,84.3 177.8,84.8 158.3,84.8 157.3,83.9 157.3,74.5 168.8,64 				"/>
				<polygon class="st0" points="177.8,84.8 177.3,85.1 177.3,100.8 157.3,100.8 157.3,83.9 158.3,84.8 				"/>
			</g>
			<g>
			</g>
		</g>
	</g>
	<path class="st2" d="M110.1,70.6h-3.4c-1,2.7-2.7,7.7-4.6,14.4c-2.3-1.2-4.1-2.7-5.6-4.3c1.3-4.3,2.1-7.8,2.4-10.1h-3.2
		c-0.2,1.6-0.8,3.9-1.7,7c-1.7-2.6-2.8-5.1-3.4-7h-3.3c0.7,2.7,2.3,6.9,5.5,10.9c-1.4,4.4-3.2,9.7-5.6,15.7c-2.8-3.2-5.1-6.9-7-10.6
		c2-5.5,3.2-10.8,3.6-16h-3.2c-0.3,3.8-1.1,7.7-2.4,11.8c-1.9-4.6-3.2-8.9-4-11.8H71c0.9,3.4,2.7,9.7,5.8,16.2
		c-1.8,4.8-4.1,9.8-6.9,14.8c-0.5-1-1-1.9-1.5-2.9c-2.3-4.8-4.3-9.5-5.9-13.8c1.9-5.8,3-10.8,3.3-14.3h-3.2
		c-0.2,2.4-0.9,5.5-1.9,9.2c-1.3-3.7-2.2-6.9-2.9-9.2h-3.3c0.9,3.1,2.4,8.2,4.6,14.3c-1.9,5.6-4.4,12-7.6,18.6
		c-2.4-5.2-4.3-9.9-5.9-14.2c2.8-6.4,4.1-12.7,3.7-18.7h-3.2c0.3,4.9-0.5,9.6-2.1,14.1c-1.7-5.3-2.8-9.6-3.5-12.5
		c-0.1-0.6-0.3-1.1-0.4-1.6h-3.3c0.2,0.6,0.4,1.5,0.6,2.3c0.9,3.5,2.3,9.1,4.8,16.2c-2.6,5.6-6.2,10.5-9.6,14.5
		c-0.7-1.4-1.3-2.8-1.9-4.2c-1.6-3.6-2.9-7-4.1-10.2c2.7-4.7,5.3-11.1,5.8-18.6h-3.2c-0.5,5.6-2.1,10.5-4.1,14.5
		c-2.2-6.7-3.5-11.8-4-14.5H18c0.6,2.9,2.1,9.4,5.2,18.3c-1.8,3-3.5,5.1-4.4,6.1c-3.1-12-5.8-21.5-6.7-24.4H8.9c0,0,0,0,0,0.1
		c0.1,0.2,5.2,17.4,9.9,37.5c2.9,12.6,5,23.5,6.2,32.6c0,0.2,0,0.5,0.1,0.7c1.3,9.7,1.6,17.3,0.8,22.4c0,0,0,0,0,0.1
		c0,0.1,0,0.1,0,0.2c0,0,0,0.1,0,0.1c0,0.1,0,0.1,0,0.2c0,0.1,0,0.1,0,0.1c0,0,0,0.1,0.1,0.1c0,0,0,0.1,0.1,0.1c0,0,0.1,0.1,0.1,0.1
		c0,0,0.1,0.1,0.1,0.1c0,0,0.1,0.1,0.1,0.1c0,0,0.1,0.1,0.1,0.1c0,0,0,0,0,0c0,0,0,0,0,0c0.1,0.1,0.3,0.2,0.4,0.2c0,0,0,0,0.1,0
		c0.1,0,0.2,0,0.2,0.1c0.1,0,0.2,0,0.2,0c0,0,0,0,0,0c0,0,0,0,0,0c0,0,0,0,0,0c0,0,0,0,0,0c0.2,0,0.3,0,0.5-0.1c0,0,0.1,0,0.1,0
		c0.1-0.1,0.3-0.1,0.4-0.2c0,0,0,0,0,0c0.1-0.1,0.1-0.1,0.2-0.2c2.4-3.2,4.9-6.4,7.5-9.8c1.1-1.4,2.1-2.7,3.2-4.1
		c2.9,4.2,6.2,8.5,9.9,13c0,0,0,0,0.1,0.1c0,0,0,0.1,0.1,0.1c0,0,0,0,0,0c0.1,0.1,0.3,0.2,0.4,0.3c0,0,0.1,0,0.1,0
		c0.2,0.1,0.3,0.1,0.5,0.1c0,0,0,0,0,0c0,0,0,0,0,0s0,0,0,0c0,0,0,0,0,0c0.2,0,0.3,0,0.5-0.1c0,0,0.1,0,0.1,0
		c0.2-0.1,0.3-0.1,0.4-0.2c0,0,0,0,0,0c0,0,0-0.1,0.1-0.1c0,0,0,0,0.1-0.1c2.8-3,6.1-7,9.7-11.9c3.5,3.7,7.2,7.5,11.2,11.1
		c0,0,0,0,0,0c0,0,0,0,0.1,0.1c0.1,0.1,0.2,0.1,0.3,0.2c0.1,0,0.1,0.1,0.2,0.1c0.2,0.1,0.4,0.1,0.5,0.1c0,0,0,0,0,0c0,0,0,0,0,0
		c0.1,0,0.2,0,0.3,0c0,0,0.1,0,0.1,0c0.1,0,0.1,0,0.2-0.1c0,0,0.1,0,0.1-0.1c0.1,0,0.1-0.1,0.2-0.1c0,0,0.1-0.1,0.1-0.1
		c0,0,0.1-0.1,0.1-0.1c0,0,0,0,0,0c0,0,0,0,0,0c2.7-3.4,5-6.6,7.1-9.5c3.4,3.6,6.9,7.2,10.6,10.6c0,0,0,0,0,0
		c0.1,0.1,0.3,0.2,0.5,0.3c0,0,0,0,0,0c0.2,0.1,0.4,0.1,0.6,0.1c0,0,0,0,0,0c0,0,0,0,0,0c0,0,0,0,0,0c0,0,0.1,0,0.1,0
		c0,0,0.1,0,0.1,0c0.1,0,0.1,0,0.2,0c0.1,0,0.1,0,0.2,0c0,0,0.1,0,0.1-0.1c0.1,0,0.1-0.1,0.1-0.1c0,0,0.1-0.1,0.1-0.1
		c0,0,0.1-0.1,0.1-0.1c0,0,0,0,0.1-0.1c0,0,0,0,0,0c0,0,0.1-0.1,0.1-0.1c0,0,0.1-0.1,0.1-0.1c0,0,0-0.1,0.1-0.1c0,0,0-0.1,0.1-0.1
		c0,0,0-0.1,0-0.1c0-0.1,0-0.1,0-0.2c0,0,0-0.1,0-0.1c0-0.1,0-0.1,0-0.2c0,0,0,0,0,0C91.7,122.7,107.2,78.3,110.1,70.6z M95.3,84.2
		c1.6,1.5,3.5,2.8,5.8,4c-1.3,4.8-2.8,10.3-4.1,16.3c0,0,0,0-0.1,0c-2.7-1.1-5.2-2.8-7.3-4.7C92,94,93.9,88.7,95.3,84.2z M78.8,90.5
		c2,3.5,4.3,6.9,7.2,9.9c-0.8,1.9-1.6,3.8-2.4,5.7c-1.2,2.8-2.7,6.1-4.5,9.8c-2.6-3.2-5-6.9-7.3-11C74.5,100.1,76.9,95.3,78.8,90.5z
		 M69.9,108.1c2.4,4.1,5,7.7,7.6,10.9c-2.3,4.6-4.9,9.6-7.9,14.8c-3.1-4.2-5.8-8.3-8.3-12.3C64.4,117.1,67.3,112.6,69.9,108.1z
		 M61,89.6c1.3,3.4,2.9,6.9,4.6,10.5c0.8,1.7,1.7,3.3,2.5,4.8c-2.6,4.5-5.5,9.1-8.6,13.6c-2.3-3.9-4.4-7.7-6.2-11.4
		C56.4,101.1,59,95.1,61,89.6z M57.6,121.4c-2.6,3.7-5.3,7.5-8,11.2c-2.1-3-4.1-6-5.9-8.9c2.9-4.2,5.5-8.7,7.9-13.2
		C53.5,114.2,55.5,117.9,57.6,121.4z M38,102.2c2.3-3,4.2-6,5.8-9c1.6,4.2,3.6,8.9,6,13.8c-2.4,4.6-5,9.3-8,13.7
		c-2.9-4.9-5.5-9.6-7.6-14C35.5,105.4,36.7,103.9,38,102.2z M19.7,98.4c0.3-0.1,0.5-0.2,0.7-0.4c0.2-0.2,2-2.1,4.2-5.3
		c1,2.5,2,5.2,3.2,7.9c0.8,1.8,1.6,3.7,2.5,5.6c-3.3,3.6-6.1,6-7.2,7C22.1,108.1,20.9,103.1,19.7,98.4z M24.6,116.3
		c0,0,0-0.1-0.1-0.1c0.3-0.2,3.4-2.7,7.4-6.9c2.2,4.5,4.9,9.3,7.9,14.3c-2.4,3.4-4.9,6.6-7.6,9.6C26.8,123.1,24.7,116.5,24.6,116.3z
		 M27.8,137.7c-0.4-2.9-0.9-5.9-1.5-9c1,2.1,2.2,4.4,3.6,7C29.2,136.4,28.5,137.1,27.8,137.7z M33.8,153.3c-1.5,1.9-2.9,3.7-4.3,5.5
		c0.1-5-0.3-11-1.2-17.4c1.1-0.9,2.1-1.9,3.2-2.9c1.8,3.1,3.8,6.4,6.1,9.9C36.3,150.1,35,151.7,33.8,153.3z M33.8,136.2
		c2.8-3,5.4-6.2,7.8-9.6c1.8,2.9,3.8,5.8,5.9,8.7c-2.6,3.5-5.3,7-7.9,10.4C37.4,142.3,35.5,139.1,33.8,136.2z M50.7,160.7
		c-3.5-4.2-6.5-8.3-9.2-12.2c2.7-3.5,5.4-7,8-10.5c3,4,6.2,8,9.8,12C56.6,153.7,53.7,157.4,50.7,160.7z M61.2,147.3
		c-3.5-4-6.7-8-9.7-11.9c2.7-3.6,5.3-7.3,7.9-11c2.7,4.2,5.5,8.3,8.5,12.4C65.9,140.3,63.6,143.8,61.2,147.3z M73.6,159.9
		c-3.6-3.4-7-6.8-10.2-10.2c2.1-3,4.4-6.4,6.7-10.2c3.1,4,6.4,8,9.9,11.8C78.1,154,76,156.9,73.6,159.9z M81.8,148.6
		c-3.6-4-7-8.1-10-12c2.6-4.5,5.3-9.4,8.1-15c3.8,4.1,7.7,7.2,11.9,9.5C90.6,133.7,87.5,139.9,81.8,148.6z M91.9,159.2
		c-2.8-2.7-5.4-5.4-7.9-8.1c3.7-5.5,6.4-10.1,8.1-13.4C91.6,144.7,91.5,152,91.9,159.2z M93,128.3c-4.1-2.3-8-5.5-11.6-9.7
		c1.7-3.5,3.4-7.2,5.1-11.2c0.7-1.6,1.3-3.1,2-4.6c2.2,1.9,4.6,3.4,7.3,4.6c0.2,0.1,0.4,0.1,0.6,0.1c0,0,0,0,0,0
		C95.1,113.9,93.9,121,93,128.3z"/>
	<g>
		<path class="st0" d="M114.5,65.6H4.5c-2.5,0-4.5-2-4.5-4.5s2-4.5,4.5-4.5h109.9c2.5,0,4.5,2,4.5,4.5S117,65.6,114.5,65.6z"/>
	</g>
</g>
</svg>
