<?xml version="1.0" encoding="utf-8"?>
<!-- Generator: Adobe Illustrator 22.1.0, SVG Export Plug-In . SVG Version: 6.00 Build 0)  -->
<svg version="1.1" id="Layer_1" xmlns="http://www.w3.org/2000/svg" xmlns:xlink="http://www.w3.org/1999/xlink" x="0px" y="0px"
	 viewBox="0 0 174.1 108.5" style="enable-background:new 0 0 174.1 108.5;" xml:space="preserve">
<style type="text/css">
	.st0{fill:#9292A0;}
</style>
<path class="st0" d="M109.3,36.1c-0.1-0.3-0.1-0.5-0.2-0.8c0,0,0-0.1,0-0.1c-0.5-1.7-1.3-3.4-2.6-5l-0.1-0.2L86.2,5.3L86,5.2l0,0
	C80.9-1,71.8-1.7,65.8,3.3l-6.3,5.1C54.8,12,53,17.7,54.2,23c0.1,0.3,0.1,0.5,0.2,0.8c0,0,0,0.1,0,0.1c0.5,1.7,1.3,3.4,2.6,5
	l0.1,0.2l20.2,24.8l0.1,0.2l0,0c5.1,6.1,14.2,6.9,20.2,1.9l6.3-5.1C108.7,47.1,110.5,41.4,109.3,36.1z M81.9,44.8l-2-2.3L67.7,27.6
	c-3.9-4.8-3.5-10.5,0.7-13.9c4.3-3.5,10.5-2.9,14.3,1.7l12.7,15.5c1.8,2.2,3.7,5.3,3.8,8.4c-0.2,2.6-1.3,5-3.4,6.7
	C91.4,49.5,85.7,49.4,81.9,44.8z"/>
<g>
	<path class="st0" d="M31.4,100.7c5.7,0.5,10.7,1.5,14.7-1.5c2.3-1.7,6-4,7.2-13.4l2.3-21.7c0.5-5.4-0.8-10.9-4-15.2
		c-2.7-3.6-6.3-6.4-10.4-7.3L33,39.7c-8.1-1.9-17.9,2.8-21.3,10.4L2.5,71.6c-2.5,6.6-3.5,13.6-1.5,17.6c2.2,4.5,6.5,7,13,8l3-10
		c-8-2-9-6-6.3-12l7.7-17.5c3.4-5.9,10.5-8.4,16.5-7l0,0c6.2,1.4,12.4,7.9,11.5,14.7l-1.4,15.8c-1,8-5,11-12,9"/>
</g>
<path class="st0" d="M109.1,73.8c-0.2-0.1-0.4-0.1-0.7-0.2c0,0,0,0-0.1,0c-1.5-0.4-3-0.5-4.7-0.3l-0.2,0l-26.5,3.9l-0.2,0l0,0
	c-6.6,1.1-11,7.3-10,13.7l1,6.7c0.6,4.9,4,8.7,8.3,10.1c0.2,0.1,0.4,0.1,0.7,0.2c0,0,0,0,0.1,0c1.5,0.4,3,0.5,4.7,0.3l0.2,0
	l26.5-3.9l0.2,0l0,0c6.6-1.1,11-7.3,10-13.7l-1-6.7C116.8,79,113.4,75.2,109.1,73.8z M103.7,97.3l-2.5,0.5l-16,2.4
	c-5.1,0.8-9-2-9.7-6.4c-0.7-4.6,2.4-8.8,7.3-9.5l16.6-2.5c2.3-0.3,5.4-0.4,7.6,0.9c1.8,1.3,3,3.1,3.4,5.3
	C111.1,92.4,108.6,96.5,103.7,97.3z"/>
<path class="st0" d="M157.2,85.4c9.2-0.9,17.8-9.2,16.9-18.2l-3-37.9c-2-12.1-9-15.1-20.3-14.2l0.6,10.2c7.3,0,8.7,2.8,9.3,12.3
	l2.3,22.8c0.4,3.8-1,7.5-3.6,10.1c-1.9,1.7-4.4,3-6.9,3.5c-7,1.3-13.6-3.5-14.8-10.2l-4.7-22.7c-1-5-3-12,5-14l-2-10
	c-10,1-17,6-14.8,19l6.8,35c0.6,3.3,2.5,7.8,5.2,10.1c3.4,3.1,5.8,4.9,12.5,5.1c0.1,0,0.2,0,0.3,0c0,0,0.1,0,0.1,0"/>
</svg>
