<?xml version="1.0" encoding="utf-8"?>
<!-- Generator: Adobe Illustrator 22.1.0, SVG Export Plug-In . SVG Version: 6.00 Build 0)  -->
<svg version="1.1" id="Layer_1" xmlns="http://www.w3.org/2000/svg" xmlns:xlink="http://www.w3.org/1999/xlink" x="0px" y="0px"
	 viewBox="0 0 98.4 71.2" style="enable-background:new 0 0 98.4 71.2;" xml:space="preserve">
<style type="text/css">
	.st0{fill:#9292A0;}
	.st1{fill:#4F4F5B;}
</style>
<g>
	<path class="st0" d="M35.6,53.5l-13.6,8c-4.2,2.5-9.6,1.1-12-2.9h0c-2.4-4.1-0.9-9.4,3.2-11.9l13.6-8c2.3-1.4,5-1.5,7.3-0.7
		l7.8-4.6c-3.6-4-9.6-5-14.4-2.2l-22,13c-5.5,3.2-7.3,10.3-4.1,15.8l3.3,5.6c3.2,5.5,10.3,7.3,15.8,4.1l22-13
		c4.8-2.8,6.8-8.6,5.1-13.7l-7.9,4.7C39.3,50,37.8,52.2,35.6,53.5z"/>
</g>
<g>
	<path class="st0" d="M96.8,11.3l-3.3-5.6c-3.2-5.5-10.3-7.3-15.8-4.1l-22,13c-4.8,2.8-6.8,8.6-5.1,13.7l8.5-5
		c0.5-2.4,1.9-4.5,4.2-5.9l13.6-8c4.2-2.5,9.5-1.2,11.9,2.9c2.4,4,0.9,9.4-3.3,11.8L72,32c-2.3,1.3-4.9,1.5-7.2,0.8l-8.5,5
		c3.6,4,9.6,5,14.4,2.2l22-13C98.2,23.9,100,16.7,96.8,11.3z"/>
</g>
<path class="st1" d="M67.1,25c-1-1.7-3.2-2.3-5-1.3L59,25.6L51.5,30l-8.2,4.9L36.3,39l-1.8,1.1c-0.4,0.2-0.7,0.5-1,0.9
	c0,0-0.1,0.1-0.1,0.1c-0.1,0.1-0.1,0.1-0.1,0.2c-0.7,1.1-0.8,2.6-0.1,3.8c1,1.7,3.2,2.3,5,1.3l1.8-1l7-4.1l2.1-1.2l6.1-3.6l7.5-4.4
	l3.2-1.9c0.5-0.3,0.9-0.8,1.2-1.2C67.7,27.6,67.8,26.2,67.1,25z"/>
</svg>
