<?xml version="1.0" encoding="utf-8"?>
<!-- Generator: Adobe Illustrator 22.1.0, SVG Export Plug-In . SVG Version: 6.00 Build 0)  -->
<svg version="1.1" id="Layer_1" xmlns="http://www.w3.org/2000/svg" xmlns:xlink="http://www.w3.org/1999/xlink" x="0px" y="0px"
	 viewBox="0 0 97.7 17.6" style="enable-background:new 0 0 97.7 17.6;" xml:space="preserve">
<style type="text/css">
	.st0{fill:#4F4F5B;}
</style>
<g>
	<path class="st0" d="M19.3,13.9l-9.4,0c-2.9,0-5.2-2.4-5.2-5.2v0c0-2.9,2.4-5.2,5.2-5.2l9.4,0c1.7,0,3.2,0.8,4.2,2.1l5.2,0
		C28,2.4,25.2,0,22,0L6.8,0C3.1,0,0,3.1,0,6.9l0,3.8c0,3.8,3.1,6.8,6.8,6.8l15.1,0c3.3,0,6-2.4,6.7-5.5l-5.5,0
		C22.2,13.2,20.8,13.9,19.3,13.9z"/>
</g>
<g>
	<path class="st0" d="M44.3,3.4l9.4,0c1.7,0,3.2,0.8,4.2,2.1l5.2,0C62.4,2.4,59.7,0,56.4,0L41.3,0c-3.3,0-6,2.4-6.7,5.5l5.6,0
		C41.1,4.2,42.6,3.4,44.3,3.4z"/>
</g>
<g>
	<path class="st0" d="M53.7,13.8l-9.4,0c-1.5,0-2.9-0.7-3.9-1.7l-5.9,0c0.6,3.1,3.4,5.5,6.7,5.5l15.1,0c3.3,0,6-2.4,6.7-5.5l-5.5,0
		C56.6,13.2,55.2,13.8,53.7,13.8z"/>
</g>
<g>
	<path class="st0" d="M90.8,0L75.7,0c-3.3,0-6,2.4-6.7,5.5l5.6,0c1-1.3,2.5-2.1,4.2-2.1l9.4,0c2.9,0,5.2,2.4,5.2,5.2
		c0,2.9-2.4,5.2-5.2,5.2l-9.4,0c-1.5,0-2.9-0.7-3.9-1.7l-5.9,0c0.6,3.1,3.4,5.5,6.7,5.5l15.1,0c3.8,0,6.8-3.1,6.8-6.8l0-3.8
		C97.7,3.1,94.6,0,90.8,0z"/>
</g>
<path class="st0" d="M41.4,10.8h-20c-1.1,0-2-0.9-2-2v0c0-1.1,0.9-2,2-2h20c1.1,0,2,0.9,2,2v0C43.4,9.9,42.5,10.8,41.4,10.8z"/>
<path class="st0" d="M76.4,10.8h-20c-1.1,0-2-0.9-2-2v0c0-1.1,0.9-2,2-2h20c1.1,0,2,0.9,2,2v0C78.4,9.9,77.5,10.8,76.4,10.8z"/>
</svg>
